<svg width="50" height="24" viewBox="0 0 50 24" fill="none" xmlns="http://www.w3.org/2000/svg">
<path d="M38.25 8.25L0 0V24H46.5852C47.8053 24 48.515 22.6209 47.8058 21.6281L38.25 8.25Z" fill="#F7A8CA"/>
<path d="M46.5672 0H0V24H32.175L47.7834 2.37796C48.4995 1.38593 47.7907 0 46.5672 0Z" fill="#F43397"/>
<path d="M12.3638 16.554H10.6493L5.6948 9.372V16.5H4.1558V6.996H5.8703L10.8248 14.178V7.05H12.3638V16.554ZM20.9406 7.05V8.454H16.2021V11.0325H19.7931V12.45H16.2021V15.096H20.9406V16.5H14.6631V7.05H20.9406ZM22.0254 7.05H23.7534L25.4679 13.9755H25.5354L27.6549 7.05H29.2344L31.3539 13.9755H31.4349L33.1359 7.05H34.7154L32.2719 16.554H30.6249L28.4244 9.399H28.3704L26.1699 16.554H24.5229L22.0254 7.05Z" fill="white"/>
</svg>
