<svg width="86" height="86" viewBox="0 0 86 86" fill="none" xmlns="http://www.w3.org/2000/svg">
<g clip-path="url(#clip0_587_2171)">
<path d="M72.5747 0H13.4253C6.01072 0 0 6.01072 0 13.4253V72.5747C0 79.9893 6.01072 86 13.4253 86H72.5747C79.9893 86 86 79.9893 86 72.5747V13.4253C86 6.01072 79.9893 0 72.5747 0Z" fill="#580A46"/>
<path d="M42.9996 54.7916C40.6652 54.7916 38.6965 52.8264 38.6965 50.4886V30.7915C38.717 27.148 35.682 24.1984 32.0898 24.2565C28.4977 24.1984 25.466 27.148 25.4831 30.7915V50.4886C25.4831 52.864 23.5554 54.7916 21.18 54.7916C18.8661 54.7916 16.877 52.7956 16.877 50.4886C16.877 50.4817 16.877 30.8633 16.877 30.8633C16.877 26.6593 18.579 22.8552 21.3338 20.1004C24.0886 17.3456 27.8859 15.6436 32.0898 15.6436C36.3724 15.6436 40.2414 17.4106 43.003 20.2611C45.7646 17.414 49.6336 15.6436 53.9162 15.6436C58.1988 15.6436 61.9174 17.3456 64.6722 20.1004C67.427 22.8552 69.1291 26.6593 69.1291 30.8633V50.4886C69.1291 52.7956 67.1399 54.7916 64.826 54.7916C62.4506 54.7916 60.5229 52.864 60.5229 50.4886V30.7915C60.5434 27.148 57.5084 24.1984 53.9162 24.2565C50.3241 24.1984 47.2924 27.148 47.3095 30.7915V50.4886C47.3095 52.8264 45.3408 54.7916 43.0064 54.7916H42.9996Z" fill="#FF9D00"/>
<path d="M35.5725 66.7781C35.699 66.6824 35.7639 66.5422 35.7639 66.3611C35.7639 65.7835 35.6853 65.2639 35.5281 64.8025C35.3709 64.3411 35.1419 63.9481 34.8445 63.6234C34.5472 63.2987 34.1849 63.0526 33.7645 62.8783C33.3441 62.7074 32.869 62.6185 32.3426 62.6185C31.6215 62.6185 30.9823 62.7826 30.4184 63.1141C29.8544 63.4422 29.417 63.8968 29.0957 64.4744C28.7778 65.052 28.6172 65.7254 28.6172 66.4944C28.6172 67.2634 28.7812 67.9675 29.1128 68.5451C29.4409 69.1227 29.9091 69.567 30.5175 69.8815C31.1259 70.1959 31.8505 70.3531 32.6913 70.3531C33.0877 70.3531 33.515 70.2984 33.9764 70.1925C34.4378 70.0865 34.8445 69.9225 35.2 69.6969C35.3811 69.5841 35.511 69.4542 35.5862 69.3004C35.6614 69.15 35.6887 68.9997 35.6682 68.8527C35.6477 68.7057 35.5896 68.5827 35.4939 68.4801C35.3982 68.3776 35.2683 68.3195 35.1077 68.3058C34.947 68.2922 34.7591 68.3434 34.5437 68.4665C34.2498 68.6271 33.9388 68.7433 33.6107 68.8083C33.2826 68.8732 32.9852 68.9074 32.722 68.9074C31.9633 68.9074 31.3856 68.7023 30.996 68.2922C30.685 67.9675 30.5004 67.5061 30.4389 66.9182H35.0325C35.2649 66.9182 35.4461 66.8703 35.5725 66.7746V66.7781ZM31.331 64.2078C31.6283 64.0096 31.9906 63.9105 32.4178 63.9105C32.8041 63.9105 33.1253 63.9925 33.3817 64.16C33.6414 64.3275 33.8362 64.5667 33.973 64.8811C34.0858 65.1409 34.1507 65.4588 34.1678 65.8245H30.4423C30.4799 65.5374 30.5449 65.2742 30.644 65.0418C30.8012 64.6829 31.0302 64.4026 31.3275 64.2044L31.331 64.2078Z" fill="white"/>
<path d="M43.9905 66.7781C44.1169 66.6824 44.1819 66.5422 44.1819 66.3611C44.1819 65.7835 44.1033 65.2639 43.9461 64.8025C43.7888 64.3411 43.5598 63.9481 43.2625 63.6234C42.9651 63.2987 42.6028 63.0526 42.1824 62.8783C41.762 62.7074 41.287 62.6185 40.7606 62.6185C40.0394 62.6185 39.4003 62.7826 38.8364 63.1141C38.2724 63.4422 37.8349 63.8968 37.5137 64.4744C37.1958 65.052 37.0352 65.7254 37.0352 66.4944C37.0352 67.2634 37.1992 67.9675 37.5307 68.5451C37.8589 69.1227 38.3271 69.567 38.9355 69.8815C39.5439 70.1959 40.2684 70.3531 41.1092 70.3531C41.5057 70.3531 41.9329 70.2984 42.3943 70.1925C42.8558 70.0865 43.2625 69.9225 43.6179 69.6969C43.7991 69.5841 43.929 69.4542 44.0042 69.3004C44.0793 69.15 44.1067 68.9997 44.0862 68.8527C44.0657 68.7057 44.0076 68.5827 43.9119 68.4801C43.8162 68.3776 43.6863 68.3195 43.5257 68.3058C43.365 68.2922 43.177 68.3434 42.9617 68.4665C42.6678 68.6271 42.3568 68.7433 42.0286 68.8083C41.7005 68.8732 41.4032 68.9074 41.14 68.9074C40.3812 68.9074 39.8036 68.7023 39.414 68.2922C39.103 67.9675 38.9184 67.5061 38.8569 66.9182H43.4505C43.6829 66.9182 43.864 66.8703 43.9905 66.7746V66.7781ZM39.7489 64.2078C40.0463 64.0096 40.4086 63.9105 40.8358 63.9105C41.222 63.9105 41.5433 63.9925 41.7996 64.16C42.0594 64.3275 42.2542 64.5667 42.3909 64.8811C42.5037 65.1409 42.5687 65.4588 42.5857 65.8245H38.8603C38.8979 65.5374 38.9628 65.2742 39.0619 65.0418C39.2192 64.6829 39.4482 64.4026 39.7455 64.2044L39.7489 64.2078Z" fill="white"/>
<path d="M49.654 66.009L48.133 65.7219C47.8391 65.6707 47.6203 65.575 47.4802 65.4348C47.3367 65.2947 47.2683 65.117 47.2683 64.9017C47.2683 64.618 47.3879 64.389 47.6237 64.2181C47.863 64.0472 48.2287 63.9583 48.7243 63.9583C48.9875 63.9583 49.2643 63.9925 49.5514 64.0643C49.8385 64.1361 50.1427 64.2523 50.4572 64.4129C50.628 64.4949 50.7853 64.5223 50.922 64.4949C51.0587 64.471 51.1715 64.4026 51.2638 64.2967C51.356 64.1907 51.4142 64.0677 51.4449 63.931C51.4757 63.7943 51.462 63.661 51.4073 63.5277C51.3526 63.3944 51.2467 63.2884 51.0963 63.2098C50.7306 63.0082 50.3546 62.8578 49.965 62.7621C49.5753 62.6664 49.1584 62.6185 48.7106 62.6185C48.092 62.6185 47.5451 62.7142 47.0701 62.9056C46.595 63.097 46.2224 63.3705 45.9524 63.7259C45.6824 64.0814 45.5491 64.5018 45.5491 64.9871C45.5491 65.5237 45.7132 65.9612 46.0413 66.303C46.3694 66.6413 46.8479 66.8738 47.4768 66.9934L48.9977 67.2805C49.3122 67.342 49.548 67.4343 49.7052 67.5607C49.8624 67.6872 49.9411 67.8683 49.9411 68.1008C49.9411 68.3742 49.8214 68.5963 49.5856 68.7604C49.3463 68.9279 48.9841 69.0099 48.4987 69.0099C48.1535 69.0099 47.8049 68.9723 47.4494 68.8971C47.094 68.8219 46.7146 68.6886 46.3079 68.4938C46.1472 68.4118 45.9969 68.3879 45.8601 68.4186C45.7234 68.4494 45.6106 68.5143 45.5252 68.6169C45.4397 68.7194 45.3885 68.8356 45.3748 68.9757C45.3611 69.1124 45.3851 69.2492 45.45 69.3859C45.5149 69.5226 45.6311 69.6422 45.7918 69.7413C46.178 69.9635 46.6121 70.1207 47.0974 70.213C47.5827 70.3053 48.0441 70.3497 48.4816 70.3497C49.4455 70.3497 50.2145 70.1412 50.7921 69.7174C51.3697 69.297 51.6568 68.716 51.6568 67.9777C51.6568 67.4309 51.4859 66.9934 51.1476 66.6721C50.8092 66.3474 50.3102 66.1252 49.6505 66.0022L49.654 66.009Z" fill="white"/>
<path d="M58.9266 62.9535C58.5403 62.7313 58.0516 62.6185 57.4535 62.6185C56.8553 62.6185 56.3222 62.7587 55.8505 63.0355C55.5087 63.2372 55.2319 63.5106 55.0234 63.849V60.3217C55.0234 60.0073 54.9413 59.768 54.7739 59.6074C54.6064 59.4468 54.3706 59.3647 54.0664 59.3647C53.7622 59.3647 53.5298 59.4468 53.3657 59.6074C53.2017 59.768 53.123 60.0073 53.123 60.3217V69.3517C53.123 69.6662 53.2051 69.9054 53.3657 70.0729C53.5264 70.2404 53.7622 70.3224 54.0664 70.3224C54.7055 70.3224 55.0234 69.9977 55.0234 69.3483V66.0193C55.0234 65.4417 55.1874 64.9769 55.519 64.6282C55.8471 64.2796 56.2914 64.1053 56.8485 64.1053C57.3031 64.1053 57.6414 64.2386 57.8602 64.5018C58.0789 64.765 58.1883 65.1853 58.1883 65.763V69.3517C58.1883 69.6662 58.2703 69.9054 58.4378 70.0729C58.6053 70.2404 58.8411 70.3224 59.1453 70.3224C59.4495 70.3224 59.6819 70.2404 59.846 70.0729C60.0066 69.9054 60.0886 69.6662 60.0886 69.3517V65.6741C60.0886 64.9837 59.9929 64.4163 59.8015 63.9652C59.6101 63.514 59.3196 63.1791 58.9368 62.9535H58.9266Z" fill="white"/>
<path d="M67.3313 63.0697C66.764 62.7552 66.0941 62.598 65.3251 62.598C64.7475 62.598 64.2245 62.6869 63.7597 62.8646C63.2949 63.0423 62.895 63.3021 62.56 63.6405C62.2251 63.9788 61.9687 64.3856 61.791 64.8572C61.6133 65.3289 61.5244 65.8621 61.5244 66.4602C61.5244 67.2497 61.6816 67.9367 61.9961 68.5212C62.3105 69.1056 62.7514 69.5534 63.3188 69.8678C63.8862 70.1822 64.5561 70.3395 65.3251 70.3395C65.9027 70.3395 66.4256 70.2506 66.8904 70.0729C67.3553 69.8951 67.7552 69.6388 68.0901 69.297C68.4251 68.9586 68.6814 68.5485 68.8591 68.0734C69.0369 67.5983 69.1257 67.0617 69.1257 66.4636C69.1257 65.6741 68.9685 64.9905 68.6541 64.4129C68.3396 63.8353 67.8987 63.391 67.3313 63.0765V63.0697ZM66.9759 67.8034C66.8187 68.1623 66.5999 68.4357 66.3162 68.6169C66.0326 68.798 65.7044 68.8903 65.3285 68.8903C64.7611 68.8903 64.3065 68.6852 63.9613 68.2751C63.6161 67.8649 63.4453 67.26 63.4453 66.4602C63.4453 65.9236 63.5239 65.4759 63.6811 65.1136C63.8383 64.7547 64.057 64.4847 64.3407 64.3069C64.6244 64.1292 64.9525 64.0404 65.3285 64.0404C65.8958 64.0404 66.3504 64.242 66.6956 64.6419C67.0408 65.0418 67.2117 65.6467 67.2117 66.4568C67.2117 66.9934 67.1331 67.4411 66.9759 67.8034Z" fill="white"/>
<path d="M22.0174 70.3258C21.5594 70.3258 21.1698 69.9396 21.1698 69.4782V65.6023C21.1732 64.8846 20.5751 64.3035 19.871 64.3172C19.1635 64.3069 18.5688 64.888 18.5722 65.6023V69.4782C18.5722 69.9464 18.1928 70.3258 17.7246 70.3258C17.27 70.3258 16.877 69.9327 16.877 69.4782V65.616C16.877 64.7889 17.2119 64.0404 17.7553 63.4969C18.2988 62.9535 19.0439 62.6185 19.871 62.6185C20.6981 62.6185 21.474 62.9671 22.0174 63.5277C22.5608 62.9671 23.323 62.6185 24.1638 62.6185C25.0046 62.6185 25.7394 62.9535 26.2795 63.4969C26.8229 64.0404 27.1579 64.7889 27.1579 65.616V69.4782C27.1579 69.9327 26.7648 70.3258 26.3102 70.3258C25.842 70.3258 25.4626 69.9464 25.4626 69.4782V65.6023C25.466 64.8846 24.8679 64.3035 24.1638 64.3172C23.4563 64.3069 22.8616 64.888 22.865 65.6023V69.4782C22.865 69.9396 22.4788 70.3258 22.0174 70.3258Z" fill="white"/>
</g>
<defs>
<clipPath id="clip0_587_2171">
<rect width="86" height="86" fill="white"/>
</clipPath>
</defs>
</svg>
